<svg xmlns="http://www.w3.org/2000/svg" width="800" height="500" viewBox="0 0 800 500">
  <!-- Background -->
  <rect width="800" height="500" fill="#f8f9fa" />
  
  <!-- Title -->
  <text x="400" y="40" font-family="Arial" font-size="24" text-anchor="middle" font-weight="bold">
    LLM Performance Comparison for Email Generation
  </text>
  
  <!-- Y-axis -->
  <line x1="100" y1="80" x2="100" y2="400" stroke="black" stroke-width="2" />
  <text x="50" y="240" font-family="Arial" font-size="16" text-anchor="middle" transform="rotate(-90, 50, 240)">
    Score (0-10)
  </text>
  
  <!-- Y-axis labels -->
  <text x="90" y="400" font-family="Arial" font-size="14" text-anchor="end">0</text>
  <text x="90" y="336" font-family="Arial" font-size="14" text-anchor="end">2</text>
  <text x="90" y="272" font-family="Arial" font-size="14" text-anchor="end">4</text>
  <text x="90" y="208" font-family="Arial" font-size="14" text-anchor="end">6</text>
  <text x="90" y="144" font-family="Arial" font-size="14" text-anchor="end">8</text>
  <text x="90" y="80" font-family="Arial" font-size="14" text-anchor="end">10</text>
  
  <!-- Horizontal grid lines -->
  <line x1="100" y1="400" x2="750" y2="400" stroke="#ddd" stroke-width="1" stroke-dasharray="5,5" />
  <line x1="100" y1="336" x2="750" y2="336" stroke="#ddd" stroke-width="1" stroke-dasharray="5,5" />
  <line x1="100" y1="272" x2="750" y2="272" stroke="#ddd" stroke-width="1" stroke-dasharray="5,5" />
  <line x1="100" y1="208" x2="750" y2="208" stroke="#ddd" stroke-width="1" stroke-dasharray="5,5" />
  <line x1="100" y1="144" x2="750" y2="144" stroke="#ddd" stroke-width="1" stroke-dasharray="5,5" />
  <line x1="100" y1="80" x2="750" y2="80" stroke="#ddd" stroke-width="1" stroke-dasharray="5,5" />
  
  <!-- X-axis -->
  <line x1="100" y1="400" x2="750" y2="400" stroke="black" stroke-width="2" />
  <text x="425" y="440" font-family="Arial" font-size="16" text-anchor="middle">
    Model
  </text>
  
  <!-- X-axis labels (models) -->
  <text x="175" y="420" font-family="Arial" font-size="14" text-anchor="middle">mock-gpt-4</text>
  <text x="325" y="420" font-family="Arial" font-size="14" text-anchor="middle">mock-gpt-3.5</text>
  <text x="475" y="420" font-family="Arial" font-size="14" text-anchor="middle">mock-claude-3</text>
  <text x="625" y="420" font-family="Arial" font-size="14" text-anchor="middle">mock-bedrock</text>
  
  <!-- Bars for Overall Score -->
  <rect x="140" y="116" width="40" height="284" fill="#001F3F" />
  <rect x="290" y="148" width="40" height="252" fill="#001F3F" />
  <rect x="440" y="124" width="40" height="276" fill="#001F3F" />
  <rect x="590" y="172" width="40" height="228" fill="#001F3F" />
  
  <!-- Bars for Engagement Score -->
  <rect x="185" y="128" width="40" height="272" fill="#0074D9" />
  <rect x="335" y="156" width="40" height="244" fill="#0074D9" />
  <rect x="485" y="140" width="40" height="260" fill="#0074D9" />
  <rect x="635" y="172" width="40" height="228" fill="#0074D9" />
  
  <!-- Bars for Conversion Potential -->
  <rect x="140" y="95" width="40" height="305" fill="#7FDBFF" opacity="0.7" />
  <rect x="290" y="140" width="40" height="260" fill="#7FDBFF" opacity="0.7" />
  <rect x="440" y="116" width="40" height="284" fill="#7FDBFF" opacity="0.7" />
  <rect x="590" y="156" width="40" height="244" fill="#7FDBFF" opacity="0.7" />
  
  <!-- Bars for Brand Alignment -->
  <rect x="185" y="132" width="40" height="268" fill="#B10DC9" opacity="0.7" />
  <rect x="335" y="164" width="40" height="236" fill="#B10DC9" opacity="0.7" />
  <rect x="485" y="140" width="40" height="260" fill="#B10DC9" opacity="0.7" />
  <rect x="635" y="180" width="40" height="220" fill="#B10DC9" opacity="0.7" />
  
  <!-- Score labels -->
  <text x="160" y="110" font-family="Arial" font-size="12" text-anchor="middle" fill="white">8.8</text>
  <text x="310" y="142" font-family="Arial" font-size="12" text-anchor="middle" fill="white">7.9</text>
  <text x="460" y="118" font-family="Arial" font-size="12" text-anchor="middle" fill="white">8.6</text>
  <text x="610" y="166" font-family="Arial" font-size="12" text-anchor="middle" fill="white">7.1</text>
  
  <!-- Legend -->
  <rect x="600" y="60" width="150" height="100" fill="white" stroke="#ddd" />
  <rect x="610" y="75" width="20" height="12" fill="#001F3F" />
  <text x="640" y="85" font-family="Arial" font-size="12">Overall Score</text>
  
  <rect x="610" y="95" width="20" height="12" fill="#0074D9" />
  <text x="640" y="105" font-family="Arial" font-size="12">Engagement</text>
  
  <rect x="610" y="115" width="20" height="12" fill="#7FDBFF" opacity="0.7" />
  <text x="640" y="125" font-family="Arial" font-size="12">Conversion</text>
  
  <rect x="610" y="135" width="20" height="12" fill="#B10DC9" opacity="0.7" />
  <text x="640" y="145" font-family="Arial" font-size="12">Brand Alignment</text>
  
  <!-- "Best Model" indication -->
  <polygon points="160,70 175,50 190,70" fill="gold" stroke="#FFD700" stroke-width="1"/>
  <text x="175" y="45" font-family="Arial" font-size="12" text-anchor="middle" font-weight="bold">
    Best Model
  </text>
</svg>